<svg width="800" height="600" xmlns="http://www.w3.org/2000/svg">
 <!-- Created with Method Draw - http://github.com/duopixel/Method-Draw/ -->
 <g>
  <title>background</title>
  <rect fill="#fff" id="canvas_background" height="602" width="802" y="-1" x="-1"/>
  <g display="none" overflow="visible" y="0" x="0" height="100%" width="100%" id="canvasGrid">
   <rect fill="url(#gridpattern)" stroke-width="0" y="0" x="0" height="100%" width="100%"/>
  </g>
 </g>
 <g>
  <title>Layer 1</title>
  <path stroke-dasharray="2,2" id="svg_1" d="m80.60001,145.46605l42.01656,0l12.98344,-35.52294l12.98345,35.52294l42.01655,0l-33.99205,21.95413l12.98411,35.52294l-33.99206,-21.95473l-33.99206,21.95473l12.98412,-35.52294l-33.99206,-21.95413z" stroke-width="0" stroke="#000" fill="#ffcdd2"/>
  <path stroke-dasharray="2,2" id="svg_2" d="m392.03499,171.10495l39.34278,0l12.15722,-36.28687l12.15723,36.28687l39.34277,0l-31.82892,22.42626l12.15785,36.28687l-31.82893,-22.42687l-31.82892,22.42687l12.15785,-36.28687l-31.82893,-22.42626z" stroke-width="0" stroke="#000" fill="#424242"/>
  <path stroke-dasharray="2,2" id="svg_3" d="m593.02505,93.13187l29.02962,0l8.97038,-25.97376l8.97038,25.97376l29.02962,0l-23.48542,16.05248l8.97084,25.97376l-23.48543,-16.05292l-23.48542,16.05292l8.97084,-25.97376l-23.48542,-16.05248z" stroke-width="0" stroke="#000" fill="#ffcdd2"/>
  <path stroke="#000" stroke-dasharray="2,2" id="svg_4" d="m587.06995,284.36343l17.95252,0l5.54747,-19.48033l5.54747,19.48033l17.95252,0l-14.52387,12.03937l5.54775,19.48033l-14.52388,-12.0397l-14.52387,12.0397l5.54776,-19.48033l-14.52387,-12.03937z" stroke-width="0" fill="#424242"/>
  <path stroke-dasharray="2,2" id="svg_5" d="m161.18999,358.62655l32.84931,0l10.15069,-29.79344l10.1507,29.79344l32.84931,0l-26.5756,18.41315l10.15122,29.79344l-26.57561,-18.41365l-26.57561,18.41365l10.15122,-29.79344l-26.57561,-18.41315z" stroke-width="0" stroke="#000" fill="#ffcdd2"/>
  <path stroke-dasharray="2,2" id="svg_6" d="m404.96001,426.51761l29.79356,0l9.20644,-29.0295l9.20644,29.0295l29.79356,0l-24.10345,17.94101l9.20692,29.0295l-24.10346,-17.9415l-24.10346,17.9415l9.20692,-29.0295l-24.10346,-17.94101z" stroke-width="0" stroke="#000" fill="#424242"/>
  <path stroke-dasharray="2,2" id="svg_7" d="m651.73007,448.36573l13.75087,0l4.24913,-16.04261l4.24913,16.04261l13.75087,0l-11.12467,9.91477l4.24935,16.04261l-11.12468,-9.91504l-11.12467,9.91504l4.24935,-16.04261l-11.12467,-9.91477z" stroke-opacity="null" stroke-width="0" stroke="#000" fill="#ffcdd2"/>
  <path stroke="#000" stroke-dasharray="2,2" id="svg_8" d="m275.06995,59.36343l17.95252,0l5.54747,-19.48033l5.54747,19.48033l17.95252,0l-14.52387,12.03937l5.54775,19.48033l-14.52387,-12.0397l-14.52388,12.0397l5.54776,-19.48033l-14.52387,-12.03937z" stroke-width="0" fill="#424242"/>
  <path stroke="#000" stroke-dasharray="2,2" id="svg_9" d="m102.06995,483.36343l17.95252,0l5.54747,-19.48033l5.54747,19.48033l17.95252,0l-14.52387,12.03937l5.54775,19.48033l-14.52387,-12.0397l-14.52388,12.0397l5.54776,-19.48033l-14.52387,-12.03937z" stroke-width="0" fill="#424242"/>
  <path stroke-dasharray="2,2" id="svg_10" d="m319.73007,284.36573l13.75088,0l4.24912,-16.04262l4.24913,16.04262l13.75087,0l-11.12467,9.91477l4.24935,16.04261l-11.12468,-9.91504l-11.12467,9.91504l4.24935,-16.04261l-11.12468,-9.91477z" stroke-opacity="null" stroke-width="0" stroke="#000" fill="#ffcdd2"/>
 </g>
</svg>